<svg width="250" height="250" viewBox="0 0 250 250" fill="none" xmlns="http://www.w3.org/2000/svg">
<g clip-path="url(#clip0_1300_17)">
<rect width="250" height="250" fill="white"/>
<rect width="250" height="250" rx="40" fill="#363636"/>
<path d="M31.0099 199V60.8182H60.2251V174.913H119.465V199H31.0099ZM189.959 60.8182H218.837V157.168C218.837 166.074 216.836 173.811 212.832 180.378C208.874 186.945 203.364 192.005 196.302 195.559C189.24 199.112 181.031 200.889 171.675 200.889C163.353 200.889 155.796 199.427 149.004 196.504C142.257 193.535 136.904 189.037 132.946 183.009C128.988 176.937 127.031 169.312 127.076 160.136H156.156C156.246 163.78 156.988 166.906 158.383 169.515C159.822 172.079 161.779 174.058 164.253 175.452C166.772 176.802 169.74 177.477 173.159 177.477C176.757 177.477 179.794 176.712 182.268 175.183C184.787 173.608 186.698 171.314 188.003 168.3C189.307 165.287 189.959 161.576 189.959 157.168V60.8182Z" fill="white"/>
<path d="M73.2173 51.4545H97.8693L123.906 114.977H125.014L151.051 51.4545H175.703V146H156.314V84.4624H155.529L131.062 145.538H117.859L93.3913 84.2315H92.6065V146H73.2173V51.4545Z" fill="white"/>
</g>
<defs>
<clipPath id="clip0_1300_17">
<rect width="250" height="250" fill="white"/>
</clipPath>
</defs>
</svg>
