<svg width="246" height="246" viewBox="0 0 246 246" fill="none" xmlns="http://www.w3.org/2000/svg">
<circle cx="122.5" cy="122.5" r="120.5" fill="white"/>
<path d="M122.6 0.000595093C54.8802 0.000595093 0 54.8596 0 122.552C0 190.243 54.8802 245.103 122.6 245.103C190.316 245.103 245.199 190.243 245.199 122.552C245.199 54.8596 190.316 0.000595093 122.6 0.000595093ZM122.6 240.931C57.1272 240.931 4.17222 187.998 4.17222 122.552C4.17222 57.1054 57.1272 4.01186 122.6 4.01186C188.07 4.01186 241.028 57.1054 241.028 122.552C241.028 187.998 188.07 240.931 122.6 240.931Z" fill="#DB1F26"/>
<path d="M76.8646 133.781C75.9018 130.091 75.42 126.242 75.42 122.391C75.42 107.794 82.1603 94.8012 92.4298 86.2999C90.5042 84.5345 86.3314 82.2887 80.8755 85.9786C80.0747 86.4605 78.95 86.6212 77.9869 86.2999C77.8268 86.1393 70.6055 83.2517 65.1506 88.7056C62.9039 90.9506 62.1007 92.5554 61.2996 93.9996C60.1758 96.5658 58.8919 98.4911 55.3619 100.415C57.1264 104.103 56.9653 106.351 56.4848 109.237C56.1633 110.841 55.8425 112.605 56.3243 115.655C57.608 123.354 64.9899 125.278 65.3107 125.278C66.2738 125.438 67.0759 126.242 67.5571 127.203C69.8031 133.138 74.2971 133.941 76.8646 133.781ZM170.099 150.622C171.864 144.045 168.331 140.838 166.085 139.555C159.666 155.916 144.101 167.786 125.808 169.229C126.451 171.635 128.536 175.806 134.955 175.967C136.079 175.967 136.88 176.609 137.363 177.41C137.523 177.732 141.695 184.308 149.397 183.025C152.446 182.543 154.05 181.741 155.496 180.94C158.063 179.656 160.149 178.693 164.161 179.334C164.801 175.326 166.407 173.562 168.331 171.635C169.615 170.352 170.899 169.069 172.345 166.341C175.875 159.445 170.899 153.511 170.74 153.35C169.937 152.548 169.777 151.585 170.099 150.622ZM78.7908 139.875C76.5429 141.158 73.334 144.528 75.0998 150.783C75.42 151.585 75.0998 152.708 74.4569 153.511C74.2971 153.671 69.3219 159.445 72.8522 166.502C74.2971 169.229 75.581 170.513 76.7039 171.635C78.7908 173.721 80.2332 175.485 81.0363 179.495C84.8883 178.853 87.1354 179.816 89.7026 181.1C91.1458 181.902 92.7505 182.704 95.8009 183.186C103.502 184.308 107.514 177.892 107.674 177.57C108.157 176.768 109.119 176.128 110.082 176.128C116.662 175.806 118.747 171.795 119.389 169.229C100.935 167.947 85.3698 156.238 78.7908 139.875ZM164 122.391C164 99.4518 145.385 80.8453 122.439 80.8453C99.492 80.8453 80.7155 99.4518 80.7155 122.391C80.7155 145.328 99.492 163.936 122.439 163.936C145.385 163.936 164 145.328 164 122.391ZM129.82 91.9136L130.944 88.2252L133.19 91.4333H136.88L134.634 94.3193L135.757 98.0092L132.228 96.7249L129.176 98.9715V95.1209L126.128 92.8767L129.82 91.9136ZM113.612 128.487H131.425C132.066 128.487 132.548 128.968 132.548 129.609V130.892C132.548 131.534 132.066 132.175 131.425 132.175H113.612C112.97 132.175 112.489 131.534 112.489 130.892V129.609C112.489 128.968 112.97 128.487 113.612 128.487ZM113.451 124.315V123.033C113.451 122.391 114.094 121.91 114.734 121.91H130.3C130.944 121.91 131.584 122.391 131.584 123.033V124.315C131.584 124.958 130.944 125.599 130.3 125.599H114.734C114.094 125.599 113.451 124.958 113.451 124.315ZM132.388 119.021H112.649C112.007 119.021 111.366 118.381 111.366 117.739V116.456C111.366 115.816 112.007 115.333 112.649 115.333H132.388C133.028 115.333 133.672 115.816 133.672 116.456V117.739C133.672 118.381 133.028 119.021 132.388 119.021ZM112.007 135.063H133.028C133.672 135.063 134.152 135.544 134.152 136.186V137.469C134.152 138.111 133.672 138.753 133.028 138.753H112.007C111.366 138.753 110.884 138.111 110.884 137.469V136.186C110.884 135.544 111.366 135.063 112.007 135.063ZM132.388 108.757C133.028 108.757 133.672 109.237 133.672 109.879V111.163C133.672 111.804 133.028 112.445 132.388 112.445H112.649C112.007 112.445 111.366 111.804 111.366 111.163V109.879C111.366 109.237 112.007 108.757 112.649 108.757H132.388ZM112.168 91.4333L114.413 88.2252L115.538 91.9136L119.229 92.8767L116.179 95.1209V98.9715L113.131 96.7249L109.6 98.0092L110.724 94.3193L108.477 91.4333H112.168ZM107.997 142.762C107.997 142.121 108.638 141.639 109.28 141.639H135.757C136.399 141.639 137.041 142.121 137.041 142.762V144.045C137.041 144.688 136.399 145.328 135.757 145.328H109.28C108.638 145.328 107.997 144.688 107.997 144.045V142.762ZM106.23 149.339C106.23 148.698 106.713 148.217 107.354 148.217H137.683C138.325 148.217 138.806 148.698 138.806 149.339V150.622C138.806 151.265 138.325 151.905 137.683 151.905H107.354C106.713 151.905 106.23 151.265 106.23 150.622V149.339ZM95.3185 126.242L92.2697 123.993L88.7386 125.278L89.8626 121.589L87.6154 118.702H91.3066L93.5522 115.494L94.6769 119.182L98.3688 120.145L95.3185 122.391V126.242ZM101.095 109.557L98.0472 107.313L94.3561 108.596L95.6401 105.067L93.2329 102.019H97.0849L99.1696 98.8124L100.454 102.5L104.145 103.624L100.935 105.87L101.095 109.557ZM140.09 157.198C140.09 157.842 139.609 158.483 138.966 158.483H106.07C105.429 158.483 104.946 157.842 104.946 157.198V156.077C104.946 155.275 105.429 154.793 106.07 154.793H138.966C139.609 154.793 140.09 155.275 140.09 156.077V157.198ZM141.215 103.624L144.904 102.5L146.188 98.8124L148.274 102.019H152.126L149.718 105.067L151.002 108.596L147.311 107.313L144.262 109.557L144.423 105.87L141.215 103.624ZM146.991 120.145L150.681 119.182L151.804 115.494L154.05 118.702H157.742L155.496 121.589L156.618 125.278L153.088 123.993L150.038 126.242V122.391L146.991 120.145ZM122.439 75.3914C131.584 75.3914 140.25 78.1191 147.472 82.7714C148.435 80.3634 149.397 75.5521 144.101 71.3833C143.3 70.7408 142.978 69.7769 142.978 68.8155C143.139 68.4942 143.62 60.7961 136.72 57.266C133.992 55.8226 132.228 55.6612 130.46 55.3415C127.573 55.0202 125.328 54.3777 122.439 51.6523C119.549 54.3777 117.303 55.0202 114.574 55.3415C112.81 55.6612 111.045 55.8226 108.316 57.266C101.416 60.7961 101.898 68.4942 101.898 68.8155C102.058 69.7769 101.737 70.7408 100.935 71.3833C95.6401 75.5521 96.6025 80.2043 97.5649 82.6107C104.786 78.1191 113.291 75.3914 122.439 75.3914ZM122.599 34.808C74.1361 34.808 34.8203 74.1095 34.8203 122.391C34.8203 170.835 74.1361 210.134 122.599 210.134C171.061 210.134 210.216 170.835 210.216 122.391C210.216 74.1095 171.061 34.808 122.599 34.808ZM196.736 100.095C196.575 100.254 196.415 100.415 196.415 100.736C193.847 104.585 194.008 105.709 194.489 108.114C194.811 109.879 195.131 112.445 194.489 116.456C193.046 125.76 185.824 129.287 182.616 130.412C180.369 135.224 177.159 137.63 173.788 138.753C175.875 141.639 176.998 145.489 176.034 150.622C177.961 153.511 181.812 160.729 177.48 169.069C175.714 172.598 173.788 174.522 172.505 175.806C170.74 177.41 169.937 178.212 169.615 183.025C169.615 183.186 169.615 183.345 169.615 183.506V183.665L169.456 183.826L169.297 184.147L169.136 184.468V184.628L168.815 184.788L168.653 184.95L168.493 185.11L168.173 185.271L168.013 185.431C168.013 185.431 167.852 185.592 167.691 185.592C167.369 185.753 166.888 185.753 166.568 185.753C166.407 185.753 166.085 185.753 165.926 185.592C161.433 184.468 160.31 184.95 158.223 186.072C156.618 187.035 154.212 188.159 150.361 188.798C141.052 190.243 135.436 184.468 133.35 181.741C128.055 181.1 124.684 178.693 122.599 175.806C120.512 178.693 117.142 181.259 111.847 181.902C109.761 184.628 104.145 190.403 94.8361 188.959C90.825 188.319 88.5794 187.195 86.9746 186.231C84.7283 185.11 83.7635 184.628 79.11 185.753C77.9869 186.072 76.7039 185.592 76.0625 184.788L75.9018 184.468L75.7408 184.308C75.581 183.987 75.581 183.506 75.42 183.186C75.2593 178.373 74.4569 177.57 72.6927 175.806C71.2481 174.522 69.4823 172.758 67.7181 169.229C63.3846 160.888 67.236 153.671 69.1609 150.783C68.038 145.65 69.3219 141.8 71.4088 138.912C68.038 137.79 64.6682 135.384 62.5828 130.572C59.3719 129.448 51.9911 125.92 50.5474 116.616C49.9051 112.605 50.3869 110.04 50.7084 108.274C51.028 105.87 51.3494 104.585 48.7822 100.736C48.4605 100.254 48.2995 99.6125 48.2995 98.9715C48.2995 98.8124 48.2995 98.8124 48.2995 98.6518V98.4911C48.2995 98.3305 48.4605 98.1691 48.4605 98.0092C48.7822 97.2076 49.4245 96.7249 50.0658 96.4052C54.5586 94.6405 55.0404 93.6775 56.1633 91.4333C56.9653 89.8277 58.0885 87.422 60.9778 84.5345C67.5571 77.9585 75.581 79.4011 78.7908 80.3634C83.4443 77.7986 87.6154 77.7987 90.9866 78.7601C90.9866 75.2308 92.2697 71.3833 96.1201 67.8524C96.1201 64.3223 97.2433 56.3029 105.75 52.1326C109.28 50.2089 111.847 49.8876 113.773 49.5664C116.019 49.2467 117.303 49.086 120.192 45.3961H120.353C120.353 45.2354 120.512 45.0748 120.673 44.9141H120.833C120.833 44.7551 120.994 44.7551 121.155 44.592H121.315L121.636 44.433H121.957L122.278 44.274H122.439H122.76L122.919 44.433C123.401 44.433 123.882 44.5921 124.363 44.9141C124.524 45.0748 124.684 45.396 124.845 45.5567C127.735 49.086 129.018 49.2467 131.264 49.5664C133.19 49.8876 135.757 50.2089 139.287 52.1326C147.631 56.3029 148.755 64.3223 148.915 67.8524C152.766 71.3833 154.05 75.2308 154.05 78.7601C157.421 77.6364 161.593 77.6364 166.246 80.2043C169.615 79.2404 177.48 77.7986 184.219 84.5345C187.108 87.422 188.231 89.6678 189.032 91.4333C189.997 93.5176 190.637 94.6405 194.971 96.2446C195.131 96.4052 195.452 96.4052 195.613 96.5658C196.255 96.8863 196.575 97.5273 196.736 98.1691V98.3305L196.897 98.6518V98.9715C196.897 99.2912 196.897 99.7739 196.736 100.095ZM183.738 93.9996C182.935 92.394 182.294 90.7915 180.048 88.7056C174.43 83.0911 167.369 85.9786 167.048 86.1393C166.246 86.4606 165.123 86.4605 164.321 85.818C158.543 82.128 154.371 84.6951 152.446 86.2999C162.716 94.9602 169.297 107.955 169.297 122.391C169.297 126.242 168.815 130.091 168.013 133.62C170.58 133.781 175.234 133.299 177.64 127.042C177.961 126.081 178.764 125.438 179.726 125.119C180.048 125.119 187.59 123.354 188.874 115.494C189.194 112.445 189.032 110.841 188.713 109.077C188.231 106.191 188.069 103.945 189.836 100.415C186.306 98.4911 185.022 96.5658 183.738 93.9996Z" fill="#DB1F26"/>
<path d="M49.1045 179.816L44.9323 189.921L49.1045 189.762L54.0797 185.592L56.4862 188.637L40.1175 202.273L37.711 199.386L44.7713 193.291L33.2183 193.931L30.168 190.403L40.9196 189.921L46.2159 176.288L49.1045 179.816Z" fill="#DB1F26"/>
<path d="M34.3405 172.758L41.8826 168.428L43.8078 171.795L36.2654 176.127L28.2424 187.515L26.1567 183.826L31.773 176.448L22.4657 177.57L20.3789 173.881L34.3405 172.758Z" fill="#DB1F26"/>
<path d="M36.1057 155.274C37.5504 159.124 35.7865 163.295 31.6133 164.739L18.4547 169.55L17.1708 165.861L30.1684 161.209C32.4154 160.408 33.3788 158.642 32.7362 156.557C31.9345 154.633 30.1684 153.83 27.7619 154.633L14.7644 159.445L13.4805 155.755L26.6391 151.104C30.8113 149.499 34.8222 151.584 36.1057 155.274Z" fill="#DB1F26"/>
<path d="M30.8107 133.781L19.0954 143.566L32.0946 141.64L32.7356 145.329L11.553 148.698L11.073 145.169L22.7867 135.545L9.94926 137.469L9.30664 133.62L30.3288 130.412L30.8107 133.781Z" fill="#DB1F26"/>
<path d="M28.4028 114.531C30.167 116.135 30.6498 118.06 30.6498 120.145C30.4887 122.391 29.6867 124.154 28.082 125.438C25.8353 127.363 23.2675 127.203 19.5771 127.041C15.8861 126.881 13.1573 126.881 11.0722 124.797C9.62729 123.354 8.98633 121.588 8.98633 119.342C9.14578 114.851 12.5163 112.605 16.0465 112.124L15.8861 116.135C13.9609 116.456 12.8361 117.578 12.677 119.503C12.677 120.627 13.1573 121.428 13.8002 122.069C14.6023 122.872 15.565 123.032 19.7372 123.193C23.7493 123.354 24.8725 123.193 25.6746 122.551C26.4766 121.909 26.9585 121.108 26.9585 119.984C26.9585 118.862 26.6377 117.899 25.8353 117.257C25.032 116.615 24.2296 116.296 23.1068 116.296H22.3047L22.1446 119.824H18.6143L18.9345 112.284H21.9836C25.032 112.445 26.9585 113.088 28.4028 114.531Z" fill="#DB1F26"/>
<path d="M25.0323 100.575L24.23 104.424L32.0941 106.03L31.1317 109.879L10.4297 105.227L12.0348 97.6877C12.9975 93.6772 16.5275 91.9133 20.059 92.7157C23.5889 93.5174 25.9963 96.5656 25.0323 100.575ZM15.7254 98.8121L14.9237 102.34L20.5396 103.463L21.3429 99.9343C21.6628 98.3302 20.861 96.886 19.095 96.5656C17.4915 96.2443 16.0469 97.0467 15.7254 98.8121Z" fill="#DB1F26"/>
<path d="M37.7106 81.9672C38.512 83.8941 38.6728 85.8178 37.8707 87.9037C36.9086 89.9881 35.464 91.1118 33.5387 91.9134C30.8105 92.8765 28.4033 91.7528 25.0326 90.3094C21.663 89.0266 19.0953 87.9037 17.9721 85.3375C17.0093 83.4121 17.0093 81.4868 17.8114 79.4009C18.7756 77.3165 20.2191 76.0338 22.1452 75.3912C24.8731 74.429 27.2805 75.3912 30.6503 76.8346C34.0193 78.2796 36.5868 79.2403 37.7106 81.9672ZM23.2681 79.0812C22.466 79.2403 21.6631 79.8828 21.3431 80.8451C20.8613 81.8081 20.8613 82.7712 21.3431 83.5728C21.8238 84.6949 22.7865 85.176 26.4772 86.7808C30.3286 88.3849 31.2914 88.5455 32.4146 88.225C33.2179 88.0644 34.0193 87.4218 34.3408 86.4604C34.8213 85.3375 34.6619 84.3736 34.3408 83.7326C33.8589 82.6105 32.8964 81.9672 29.2054 80.3632C25.3543 78.9213 24.3912 78.6008 23.2681 79.0812Z" fill="#DB1F26"/>
<path d="M46.6972 67.2111C47.1778 69.2963 47.0183 71.0617 45.7344 72.9855C44.4505 74.91 42.8461 75.873 40.7601 76.1943C37.8709 76.6754 35.7859 75.2305 32.5755 73.1461C29.5267 71.2208 27.2807 69.7766 26.6384 66.8898C26.1572 64.9645 26.3167 63.0392 27.6006 61.1155C28.8842 59.1918 30.4895 58.2279 32.5755 57.9067C35.4641 57.4255 37.5498 58.8705 40.7601 60.9549C43.8083 63.0392 46.0546 64.4842 46.6972 67.2111ZM33.0571 61.7573C32.0946 61.7573 31.2916 62.2376 30.6505 63.2014C30.1678 64.0031 30.0077 65.1252 30.3288 65.9284C30.6505 67.0497 31.2916 67.6922 34.8215 69.938C38.1927 72.1823 39.1551 72.6658 40.2783 72.5035C41.2405 72.3445 42.044 71.8618 42.6851 71.0617C43.1669 70.0979 43.3279 69.1364 43.0068 68.334C42.6851 67.2111 42.044 66.4095 38.5122 64.1637C35.143 61.9163 34.1802 61.5974 33.0571 61.7573Z" fill="#DB1F26"/>
<path d="M59.3715 56.1428L48.9416 53.2544L49.4241 57.2649L54.0779 61.7565L51.349 64.4834L36.1035 49.8865L38.6714 46.9974L45.4117 53.4158L43.4856 42.0262L46.8566 38.4969L48.4601 49.2455L62.5825 52.9331L59.3715 56.1428Z" fill="#DB1F26"/>
<path d="M77.9876 42.6681L64.3478 35.6118L71.2488 46.8399L67.8778 48.7637L56.8066 30.6383L59.6946 28.8752L73.1738 35.9315L66.4353 24.7025L69.6441 22.778L80.8763 40.9042L77.9876 42.6681Z" fill="#DB1F26"/>
<path d="M94.6772 35.2903L92.2701 32.2413L85.691 34.8076L85.8517 38.6582L82.1606 40.1016L81.3574 17.6444L84.2462 16.5231L98.5276 34.0075L94.6772 35.2903ZM85.0478 22.9384L85.5302 31.1192L90.0229 29.3553L85.0478 22.9384Z" fill="#DB1F26"/>
<path d="M103.985 15.0784L107.355 32.4022L103.503 33.0439L100.134 15.8808L94.9982 16.8438L94.3574 13.1538L108.317 10.4269L109.12 14.1169L103.985 15.0784Z" fill="#DB1F26"/>
<path d="M114.575 31.4404L112.971 10.1062L116.821 9.94631L118.427 31.12L114.575 31.4404Z" fill="#DB1F26"/>
<path d="M133.993 29.3547C132.55 30.7981 130.783 31.4391 128.537 31.28C126.291 31.28 124.525 30.3154 123.241 28.7121C121.477 26.4671 121.638 23.7402 121.797 20.0502C121.958 16.3618 122.119 13.7948 124.204 11.7104C125.81 10.2654 127.575 9.62364 129.821 9.78428C132.067 9.78428 133.673 10.7465 134.957 12.3506C136.882 14.5964 136.722 17.3225 136.4 21.0133C136.24 24.5418 136.08 27.2672 133.993 29.3547ZM131.908 14.7562C131.426 13.9562 130.624 13.4735 129.499 13.4735C128.537 13.3136 127.575 13.7948 126.931 14.4373C126.13 15.2381 125.969 16.2012 125.648 20.3715C125.488 24.382 125.648 25.3434 126.291 26.3065C126.772 27.1081 127.736 27.5892 128.698 27.5892C129.821 27.7507 130.624 27.2672 131.266 26.6278C132.067 25.8261 132.389 24.8623 132.55 20.692C132.87 16.6831 132.709 15.5586 131.908 14.7562Z" fill="#DB1F26"/>
<path d="M150.2 34.9689L145.707 20.2114L142.499 32.8845L138.807 31.9215L143.943 11.3896L147.312 12.1904L151.805 26.7881L155.014 14.1165L158.706 15.078L153.41 35.7705L150.2 34.9689Z" fill="#DB1F26"/>
<path d="M167.049 41.8678L167.531 38.0172L161.112 34.969L158.544 37.855L154.854 36.0919L170.42 19.8902L173.148 21.3343L170.74 43.6309L167.049 41.8678ZM169.297 26.3071L163.679 32.2413L168.174 34.3288L169.297 26.3071Z" fill="#DB1F26"/>
<path d="M171.705 44.4327L184.061 27.1089L187.27 29.3555L177 43.7917L184.382 48.9258L182.296 51.9717L171.705 44.4327Z" fill="#DB1F26"/>
<path d="M192.404 62.2373C189.676 59.1915 189.676 54.8589 193.046 51.8123L203.476 42.5078L206.043 45.3954L195.773 54.5376C194.008 56.1432 193.688 58.2276 195.131 59.8316C196.575 61.2758 198.503 61.4365 200.427 59.671L210.697 50.528L213.265 53.4163L202.834 62.7192C199.464 65.7666 195.131 65.2855 192.404 62.2373Z" fill="#DB1F26"/>
<path d="M205.242 80.3626L212.464 66.8894L201.231 73.467L199.305 70.0975L217.599 59.3504L219.364 62.3978L212.143 75.712L223.374 69.136L225.302 72.5031L207.008 83.251L205.242 80.3626Z" fill="#DB1F26"/>
<path d="M208.131 86.6207L227.87 78.6006L229.314 82.1275L209.736 90.1484L208.131 86.6207Z" fill="#DB1F26"/>
<path d="M212.944 100.414L212.143 97.6872L230.917 85.6566L232.04 89.5064L219.684 97.0462L234.127 97.2068L235.25 101.057L212.944 100.414Z" fill="#DB1F26"/>
<path d="M214.871 108.114L236.054 105.87L237.338 118.863L233.646 119.343L232.684 110.201L227.709 110.683L228.511 118.381L224.821 118.863L224.019 111.002L218.883 111.484L219.845 120.788L216.155 121.108L214.871 108.114Z" fill="#DB1F26"/>
<path d="M215.353 134.26L224.178 131.052L224.339 128.325L215.834 127.684L216.154 123.835L237.496 125.438L236.854 133.137C236.534 137.147 233.485 139.393 229.955 139.072C226.907 138.912 225.141 136.987 224.498 135.063L215.031 138.752L215.353 134.26ZM233.163 132.656L233.485 128.967L227.869 128.486L227.547 132.174C227.388 133.94 228.509 135.063 230.115 135.223C231.879 135.383 233.004 134.26 233.163 132.656Z" fill="#DB1F26"/>
<path d="M212.944 146.132C213.747 143.245 215.031 141.158 217.598 139.875L219.525 142.923C217.919 143.725 217.117 145.328 216.636 147.093C215.992 149.339 216.636 150.783 218.241 151.104C219.041 151.424 219.683 151.265 220.165 150.944C220.647 150.783 220.967 150.301 221.288 149.5L222.251 147.254C222.894 145.65 223.856 144.528 224.979 143.884C226.103 143.245 227.547 143.245 229.313 143.566C233.003 144.528 234.928 147.735 233.966 151.905C233.162 154.633 232.039 156.238 229.954 157.521L228.03 154.472C229.471 153.671 230.115 152.227 230.435 150.944C230.917 148.859 229.954 147.576 228.509 147.254C228.03 147.093 227.387 147.093 226.907 147.415C226.424 147.735 225.941 148.217 225.623 149.018L224.819 151.265C224.017 152.869 223.214 153.831 222.251 154.472C220.967 155.275 219.363 155.275 217.437 154.793C213.426 153.831 211.981 150.141 212.944 146.132Z" fill="#DB1F26"/>
<path d="M210.375 155.594L230.114 163.455L228.67 166.983L208.932 159.284L210.375 155.594Z" fill="#DB1F26"/>
<path d="M219.525 177.57L203.957 169.228L205.883 165.861L221.288 174.2L223.856 169.549L227.065 171.314L220.325 183.825L217.117 182.061L219.525 177.57Z" fill="#DB1F26"/>
<path d="M202.673 186.874L195.773 181.58L198.02 178.372L205.081 183.664L218.721 186.553L216.153 189.921L207.007 187.675L211.66 195.857L209.092 199.224L202.673 186.874Z" fill="#DB1F26"/>
<path d="M105.751 229.703L103.824 237.082L100.615 236.278L102.22 230.024L87.1367 226.012L87.9383 223.287L95.3198 225.373L95.9622 223.126L87.2967 220.88L87.9383 218.315L108.639 223.767L107.998 226.173L99.1709 223.929L98.5286 226.173L104.787 227.779C104.787 227.779 106.071 228.1 105.751 229.703Z" fill="#DB1F26"/>
<path d="M90.8262 217.192L107.836 221.682L110.083 213.021L106.875 212.219L106.392 213.983L94.5181 210.937L94.9981 209.171L91.7893 208.369L90.0238 215.588C90.0238 215.588 89.543 216.87 90.8262 217.192ZM105.751 216.548L105.43 218.155L93.3941 215.106L93.8757 213.342L105.751 216.548Z" fill="#DB1F26"/>
<path d="M115.858 232.751H123.401V230.024H116.981V217.352H122.918V214.464H113.772V230.666C113.772 230.666 113.611 232.751 115.858 232.751Z" fill="#DB1F26"/>
<path d="M131.104 220.881H128.055V214.304H124.846V233.394H128.055V223.768H131.104V233.394H134.312V214.304H131.104V220.881Z" fill="#DB1F26"/>
<path d="M181.493 214.143L177.481 206.926L174.592 208.528L178.765 215.748L175.554 217.672L171.384 210.454L168.654 212.058L172.667 219.276L168.976 221.362L170.42 223.768L189.837 212.7L188.392 210.295L181.493 214.143Z" fill="#DB1F26"/>
<path d="M180.049 199.225L185.023 207.888L182.134 209.493L177.641 201.632L163.679 209.493L162.234 207.085L177.481 198.425C177.481 198.425 179.087 197.462 180.049 199.225Z" fill="#DB1F26"/>
<path d="M159.509 223.607L142.98 227.939L143.781 230.505L158.386 226.816L159.99 232.751L163.038 231.788L161.273 224.409C160.792 223.126 159.509 223.607 159.509 223.607ZM158.225 213.342L156.782 207.887L153.731 208.688L157.262 222.485L160.471 221.681L159.027 216.068L161.754 215.267L161.113 212.7L158.225 213.342ZM143.463 215.587C141.216 217.031 139.932 219.436 140.573 221.681C141.376 224.57 144.586 226.173 147.795 225.373C151.004 224.57 153.09 221.522 152.287 218.635C151.647 216.387 149.238 214.785 146.511 214.785L146.349 214.143L151.163 212.86L150.522 210.133L145.708 211.415L145.227 209.812L142.179 210.615L142.66 212.218L138.166 213.342L138.808 216.068L143.463 214.785L143.622 215.587H143.463ZM145.708 217.671C147.313 217.191 148.917 217.993 149.238 219.436C149.559 220.88 148.597 222.324 147.152 222.646C145.548 223.126 143.944 222.324 143.622 220.88C143.302 219.436 144.264 217.993 145.708 217.671Z" fill="#DB1F26"/>
<path d="M80.3958 224.248C81.8405 221.201 79.755 217.191 75.5829 215.267C71.4106 213.342 66.9167 214.304 65.6328 217.191C64.1884 220.079 66.4364 224.089 70.4467 226.012C74.6198 227.939 79.1118 227.136 80.3958 224.248ZM71.5701 223.767C69.1628 222.646 67.7199 220.239 68.5217 218.635C69.3238 217.031 72.052 216.548 74.4587 217.671C76.5447 218.635 78.4709 220.88 77.5088 222.806C76.5447 224.73 73.6576 224.73 71.5701 223.767Z" fill="#DB1F26"/>
<path d="M79.1109 203.074L70.1258 198.904L69.0029 201.15L75.7417 204.357C75.582 204.678 75.1008 205.161 74.4578 205.962C70.7672 209.812 65.3116 208.209 65.3116 208.209L64.1875 210.453C75.582 213.982 79.4325 204.198 79.4325 204.198C79.9148 203.396 79.1109 203.074 79.1109 203.074ZM85.3708 205.642L84.2468 207.887L79.754 205.802L78.47 208.209L83.1236 210.453L82.3212 212.218L77.5078 209.972L76.384 212.539L81.0372 214.625L79.754 217.671L82.8028 218.954L88.4195 207.084L85.3708 205.642Z" fill="#DB1F26"/>
</svg>
