<svg width="200" height="200" viewBox="0 0 200 200" fill="none" xmlns="http://www.w3.org/2000/svg">
<path d="M0 0H200V200H0V0Z" fill="#EC1B24"/>
<path d="M128.511 118.548H131.372L129.909 116.076L131.372 113.603H128.511L127.08 111.131L125.65 113.603H122.789L124.219 116.076L122.789 118.548H125.65L127.08 121.021L128.511 118.548Z" fill="white"/>
<path d="M173.017 118.548H175.943L174.642 116.076L175.943 113.603H173.017L171.717 111.131L170.416 113.603H167.49L168.791 116.076L167.49 118.548H170.416L171.717 121.021L173.017 118.548Z" fill="white"/>
<path d="M141.548 119.688V120.241H138.427V123.885H141.97V146.722H133.843V124.405H120.287V146.722H115.865V150.496H183.095V146.722H178.544V124.405H164.89V146.722H156.762V123.885H160.338V120.241H157.413C157.088 116.304 155.137 112.954 150.911 112.043V108.074H153.837V105.341H150.911V101.99H147.822V105.341H144.864V108.074H147.822V112.043C144.181 112.888 141.548 115.881 141.548 119.688Z" fill="white"/>
<path d="M149.284 166.163C144.473 166.163 140.474 170.171 140.474 175.119L140.311 190.117H112.158C116.319 178.499 119.115 166.81 119.993 154.432H178.868C179.844 166.81 182.444 178.499 186.67 190.117H158.387V175.119C158.387 170.171 154.486 166.163 149.284 166.163Z" fill="white"/>
<path d="M87.0294 65.3253H78.9994V42.8127H55.5925V47.9857C55.5925 59.2745 48.8953 66.0411 35.8589 66.0411C22.4974 66.0411 16.1582 59.8273 16.1582 48.2132V15.1602H24.2531V46.5864C24.2531 54.6545 27.0812 59.3717 35.9564 59.3717C44.6691 59.3717 47.6274 54.6545 47.6274 46.5864V15.1602H55.5925V35.8834H78.9994V15.1602H87.0294V35.8834H110.599V15.1602H118.629V65.3253H110.599V42.8127H87.0294V65.3253Z" fill="white"/>
</svg>
